<svg width="182" height="181" viewBox="0 0 182 181" fill="none" xmlns="http://www.w3.org/2000/svg">
<g opacity="0.9" filter="url(#filter0_d_2_25)">
<path d="M4.5 44C4.5 19.6995 24.1995 0 48.5 0H133.5C157.801 0 177.5 19.6995 177.5 44V129C177.5 153.301 157.801 173 133.5 173H48.5C24.1995 173 4.5 153.301 4.5 129V44Z" fill="url(#paint0_linear_2_25)"/>
<path d="M48.5 1H133.5C157.248 1.00001 176.5 20.2518 176.5 44V129C176.5 152.748 157.248 172 133.5 172H48.5C24.7518 172 5.50001 152.748 5.5 129V44C5.5 20.2518 24.7518 1 48.5 1Z" stroke="#F8EFEF" stroke-opacity="0.36" stroke-width="2"/>
</g>
<g clip-path="url(#clip0_2_25)">
<mask id="mask0_2_25" style="mask-type:luminance" maskUnits="userSpaceOnUse" x="47" y="40" width="92" height="93">
<path d="M139 40.5H47V132.5H139V40.5Z" fill="white"/>
</mask>
<g mask="url(#mask0_2_25)">
<path fill-rule="evenodd" clip-rule="evenodd" d="M96.2858 40.5H89.7143V78.5676L62.7964 51.6497L58.1498 56.2964L85.0676 83.2143H47V89.7858H85.0675L58.1498 116.704L62.7964 121.35L89.7143 94.4322V132.5H96.2858V94.4322L123.204 121.35L127.85 116.704L100.932 89.7858H139V83.2143H100.932L127.85 56.2964L123.204 51.6497L96.2858 78.5675V40.5Z" fill="url(#paint1_linear_2_25)"/>
</g>
</g>
<defs>
<filter id="filter0_d_2_25" x="0.5" y="0" width="181" height="181" filterUnits="userSpaceOnUse" color-interpolation-filters="sRGB">
<feFlood flood-opacity="0" result="BackgroundImageFix"/>
<feColorMatrix in="SourceAlpha" type="matrix" values="0 0 0 0 0 0 0 0 0 0 0 0 0 0 0 0 0 0 127 0" result="hardAlpha"/>
<feOffset dy="4"/>
<feGaussianBlur stdDeviation="2"/>
<feComposite in2="hardAlpha" operator="out"/>
<feColorMatrix type="matrix" values="0 0 0 0 0 0 0 0 0 0 0 0 0 0 0 0 0 0 0.25 0"/>
<feBlend mode="normal" in2="BackgroundImageFix" result="effect1_dropShadow_2_25"/>
<feBlend mode="normal" in="SourceGraphic" in2="effect1_dropShadow_2_25" result="shape"/>
</filter>
<linearGradient id="paint0_linear_2_25" x1="58" y1="54" x2="150.005" y2="185.928" gradientUnits="userSpaceOnUse">
<stop offset="0.29563" stop-color="#FF490C"/>
<stop offset="1" stop-color="#FF0099"/>
</linearGradient>
<linearGradient id="paint1_linear_2_25" x1="56.43" y1="47.86" x2="93" y2="132.5" gradientUnits="userSpaceOnUse">
<stop stop-color="#ACAAFF"/>
<stop offset="1" stop-color="#C0E8FF"/>
</linearGradient>
<clipPath id="clip0_2_25">
<rect width="92" height="92" fill="white" transform="translate(47 40.5)"/>
</clipPath>
</defs>
</svg>
